<?xml version="1.0" standalone="no"?>
<!DOCTYPE svg PUBLIC "-//W3C//DTD SVG 20010904//EN"
 "http://www.w3.org/TR/2001/REC-SVG-20010904/DTD/svg10.dtd">
<svg version="1.0" xmlns="http://www.w3.org/2000/svg"
 width="512.000000pt" height="512.000000pt" viewBox="0 0 512.000000 512.000000"
 preserveAspectRatio="xMidYMid meet">
<metadata>
Created by potrace 1.11, written by Peter Selinger 2001-2013
</metadata>
<g transform="translate(0.000000,512.000000) scale(0.100000,-0.100000)"
fill="#000000" stroke="none">
<path d="M2476 4033 c-3 -4 -37 -8 -74 -9 -37 -1 -75 -5 -85 -9 -10 -4 -24 -2
-32 5 -13 11 -14 10 -10 -2 3 -8 0 -15 -7 -15 -28 -2 -94 -15 -108 -23 -8 -4
-23 -6 -32 -5 -10 2 -18 -1 -18 -6 0 -6 -6 -9 -12 -7 -7 1 -23 -3 -35 -10 -13
-7 -23 -10 -23 -7 0 3 -11 -2 -25 -11 -14 -9 -32 -14 -40 -10 -9 3 -14 2 -11
-3 6 -8 -12 -20 -25 -17 -4 0 -16 -7 -27 -17 -11 -10 -29 -19 -40 -20 -11 0
-18 -5 -15 -10 3 -4 -4 -11 -16 -14 -12 -3 -21 -10 -21 -15 0 -6 -7 -7 -16 -4
-8 3 -12 2 -9 -4 3 -6 3 -10 -2 -10 -4 0 -30 -21 -58 -45 -27 -25 -54 -45 -58
-45 -5 0 -6 -4 -3 -9 7 -11 -22 -23 -36 -14 -7 3 -8 1 -4 -5 10 -17 -13 -55
-29 -48 -8 3 -12 0 -9 -8 5 -14 -33 -62 -47 -59 -4 2 -5 -5 -2 -14 4 -11 3
-14 -5 -9 -8 5 -10 2 -6 -8 6 -15 -6 -21 -30 -17 -5 1 -4 -5 4 -13 11 -14 8
-20 -10 -18 -3 0 -6 -7 -7 -16 -2 -27 -49 -103 -58 -95 -4 5 -5 3 -2 -3 9 -15
-12 -76 -23 -69 -5 3 -12 0 -16 -6 -5 -8 -3 -9 6 -4 10 6 11 4 6 -11 -5 -10
-9 -25 -9 -31 0 -12 -18 -18 -40 -14 -5 1 -6 -3 -2 -8 3 -6 13 -7 23 -4 15 6
15 5 3 -10 -7 -9 -11 -17 -8 -17 3 0 1 -14 -5 -30 -9 -27 -12 -29 -27 -18 -14
12 -15 11 -2 -4 12 -17 11 -34 -6 -93 -4 -16 -1 -15 21 8 14 15 26 31 26 34 0
3 10 14 22 24 17 16 24 17 37 6 14 -11 14 -10 3 5 -12 15 -12 20 1 32 9 10 18
11 24 5 7 -7 20 0 40 18 25 23 27 29 12 29 -9 0 -16 -4 -13 -7 2 -4 -1 -11 -7
-14 -7 -5 -10 0 -7 11 2 11 10 19 18 19 8 1 14 6 13 13 -2 7 4 9 14 5 12 -5
14 -3 8 7 -6 9 -4 11 4 6 7 -5 10 -14 7 -21 -5 -14 18 -14 31 0 4 4 3 5 -3 2
-23 -13 -25 26 -3 50 13 12 25 21 27 18 3 -3 14 2 24 12 10 9 18 13 18 9 0 -4
7 0 16 8 19 19 38 11 30 -13 -5 -13 -3 -12 8 3 8 10 19 15 25 11 7 -4 8 0 5
10 -5 12 -9 13 -20 4 -10 -8 -14 -8 -14 0 0 6 5 12 10 12 6 1 15 3 20 4 6 1
15 3 21 4 5 0 8 5 5 10 -3 4 6 7 19 5 14 -1 25 2 25 8 0 6 11 7 26 4 19 -5 24
-4 18 6 -4 7 -4 10 1 6 4 -4 15 -2 23 5 13 9 14 9 8 0 -4 -8 -2 -13 4 -13 6 0
8 -5 4 -12 -4 -6 -3 -8 4 -4 5 3 13 0 15 -6 4 -9 6 -10 6 -1 1 6 -3 15 -9 18
-18 11 -11 22 13 21 12 -1 27 0 32 3 6 3 19 7 30 8 16 2 17 1 5 -6 -8 -5 -17
-8 -21 -5 -4 2 -9 -3 -13 -11 -3 -8 0 -17 6 -21 7 -4 8 -3 4 4 -4 7 -1 12 9
12 9 0 14 -4 11 -9 -4 -5 2 -8 11 -6 10 1 25 -2 33 -8 8 -6 12 -7 8 -3 -4 5
-2 16 5 25 11 14 10 14 -5 2 -15 -11 -18 -11 -18 0 0 12 -2 12 -9 0 -5 -8 -11
-9 -15 -3 -3 5 2 13 12 17 23 11 52 13 47 5 -3 -4 13 -6 35 -5 23 1 37 -2 33
-8 -3 -5 3 -6 16 -2 13 4 21 2 21 -5 0 -6 -4 -8 -10 -5 -5 3 -10 1 -10 -4 0
-15 11 -13 34 4 20 15 36 12 36 -8 0 -8 -3 -8 -9 2 -6 9 -11 10 -15 2 -4 -6
-2 -11 4 -11 6 0 8 -5 4 -12 -6 -10 -5 -10 7 -1 11 9 19 9 26 2 8 -8 17 -8 31
0 13 7 22 7 24 1 2 -5 14 -11 28 -13 14 -2 27 -12 28 -22 3 -11 0 -15 -7 -10
-6 3 -9 10 -7 14 3 3 -4 7 -14 7 -17 0 -17 -2 3 -21 17 -16 24 -17 30 -8 9 15
37 17 37 3 0 -6 3 -9 8 -8 16 5 89 -58 86 -75 -3 -21 12 -32 22 -16 5 8 3 9
-6 4 -9 -6 -11 -4 -5 4 5 9 19 2 48 -26 23 -21 44 -40 47 -42 3 -2 -3 -1 -12
2 -10 3 -20 2 -23 -4 -4 -5 -3 -9 2 -8 4 1 13 1 19 0 16 -2 84 -57 78 -64 -3
-3 4 -8 16 -12 18 -6 19 -9 8 -23 -7 -10 -9 -14 -4 -10 4 4 18 -3 30 -16 11
-12 15 -14 7 -4 -19 24 -6 23 18 -1 13 -13 16 -21 8 -24 -9 -3 -8 -8 2 -18 11
-11 12 -11 6 -1 -5 10 0 10 23 -2 16 -8 32 -23 36 -33 6 -17 5 -17 -8 0 -12
16 -14 16 -20 2 -3 -9 -2 -13 3 -10 5 3 12 1 16 -4 3 -6 12 -8 20 -4 8 3 15
-1 15 -8 0 -7 3 -9 7 -6 10 11 35 -32 27 -46 -6 -9 -5 -9 7 -1 11 9 17 8 29
-4 13 -14 12 -15 -3 -9 -10 4 -16 3 -12 -2 3 -5 -1 -12 -7 -14 -7 -3 1 -3 18
0 20 3 34 0 43 -11 7 -9 18 -13 25 -10 6 3 3 -1 -6 -9 -10 -8 -18 -18 -18 -23
0 -4 5 -3 12 4 18 18 38 14 38 -8 0 -11 4 -20 10 -20 5 0 7 8 4 18 -3 9 5 0
18 -20 13 -21 27 -38 32 -38 6 0 5 5 -2 12 -7 7 -12 16 -12 22 0 5 8 0 18 -10
9 -10 24 -20 32 -22 8 -2 17 -7 20 -11 7 -10 64 -35 73 -32 5 1 6 -3 2 -9 -4
-6 4 -10 19 -10 26 0 35 -14 16 -25 -5 -3 -10 -1 -10 6 0 7 -3 9 -6 6 -9 -9
16 -38 27 -31 5 3 7 10 4 15 -4 5 1 9 10 9 11 0 15 -5 11 -15 -3 -8 -1 -15 4
-15 6 0 10 8 10 17 0 15 2 14 16 -3 8 -10 12 -13 9 -6 -6 11 -3 12 11 4 11 -5
27 -8 37 -7 9 2 15 -1 12 -5 -3 -5 -14 -7 -24 -5 -15 3 -18 -1 -13 -18 4 -16
7 -17 11 -6 4 9 18 15 36 15 26 -1 30 -5 29 -28 -1 -15 3 -25 8 -22 4 3 6 9 3
14 -3 4 -2 15 1 24 5 13 10 14 20 5 7 -6 18 -8 25 -4 8 5 8 1 -1 -15 -6 -12
-9 -24 -6 -28 3 -3 6 -1 6 4 0 5 9 10 20 11 11 1 18 -2 15 -8 -4 -5 -1 -9 5
-9 7 0 10 6 7 13 -2 6 -11 11 -20 11 -9 -1 -14 2 -11 7 5 8 19 7 69 -4 6 -2
15 -5 20 -8 6 -3 20 -4 32 -3 12 0 20 -2 17 -7 -2 -4 -12 -5 -22 -2 -18 7 -17
5 12 -17 17 -13 18 -13 11 -1 -6 11 -4 13 7 8 9 -3 25 1 36 9 11 8 23 10 26 6
3 -5 21 -8 41 -7 23 1 39 -3 42 -11 3 -8 9 -14 14 -14 4 0 6 6 4 13 -4 8 8 12
39 12 34 0 42 -3 38 -15 -5 -13 -3 -13 10 -2 13 10 22 11 37 3 14 -8 22 -8 27
1 4 6 3 8 -4 4 -6 -3 -13 -2 -16 2 -3 5 7 8 22 7 15 -1 32 1 37 5 15 9 35 7
35 -5 0 -5 -14 -10 -30 -9 -17 0 -28 -1 -25 -4 2 -3 -3 -10 -11 -17 -15 -11
-15 -12 -1 -12 9 0 18 5 20 11 3 7 23 11 46 10 29 0 39 2 31 10 -13 13 -13 26
-1 26 5 0 13 -9 16 -20 8 -26 17 -25 33 1 8 12 9 18 3 14 -6 -3 -11 -1 -11 5
0 6 12 8 31 5 22 -4 28 -2 23 6 -4 8 -3 9 5 5 17 -11 2 -29 -18 -21 -13 5 -14
4 -3 -7 10 -10 17 -7 38 15 21 23 44 29 44 11 0 -3 -4 -3 -9 0 -5 3 -12 -1
-15 -10 -10 -25 -7 -27 11 -9 16 16 17 16 30 -1 7 -10 13 -12 13 -6 0 19 -4
27 -12 24 -16 -5 -8 16 8 22 23 9 34 7 34 -5 0 -5 -4 -7 -10 -4 -5 3 -7 0 -4
-9 5 -12 9 -13 19 -3 7 6 10 17 8 24 -3 8 6 11 26 11 27 -1 29 -3 19 -17 -9
-11 -5 -10 9 2 12 11 26 16 32 12 7 -4 8 0 5 10 -5 11 -10 13 -19 5 -10 -8
-15 -8 -21 1 -4 7 -3 9 4 5 5 -3 12 0 15 6 3 10 7 10 21 -1 14 -12 16 -12 10
4 -5 12 -4 16 3 12 16 -10 44 3 36 17 -3 6 -2 8 2 3 5 -4 17 0 27 10 10 9 18
12 18 7 0 -5 5 -2 11 6 9 13 10 12 5 -2 -4 -13 -1 -15 11 -11 11 4 14 2 9 -5
-11 -18 0 -14 15 5 8 10 9 14 2 10 -6 -4 -14 -3 -18 3 -3 5 3 10 14 10 12 0
21 5 21 11 0 5 -5 7 -12 3 -7 -4 -8 -3 -4 5 6 9 11 9 24 -1 9 -7 13 -8 10 -3
-4 6 1 19 9 30 15 20 15 20 9 -2 -4 -12 -3 -24 2 -26 4 -3 9 4 9 15 2 27 47
73 62 64 6 -4 8 -12 5 -18 -4 -6 -3 -8 3 -5 6 4 9 18 8 32 -2 14 1 23 6 19 5
-3 12 2 15 10 3 9 10 13 15 10 5 -3 6 -11 2 -17 -4 -7 1 -6 10 2 12 10 14 17
7 26 -13 16 7 32 37 29 15 -1 20 3 16 13 -5 12 -7 12 -14 1 -6 -9 -9 -9 -9 -1
0 7 9 17 21 23 11 7 18 14 15 17 -3 4 -1 12 5 20 10 11 15 11 27 1 14 -12 14
-10 2 12 -12 22 -12 24 3 12 13 -11 15 -10 11 5 -3 11 5 30 19 45 14 15 22 30
18 34 -3 3 5 3 19 0 17 -5 21 -4 11 2 -15 11 -6 56 10 47 5 -3 6 1 3 9 -3 9
-1 16 6 16 6 0 8 5 4 12 -5 7 -3 8 6 3 9 -6 12 -4 8 7 -4 8 -2 21 3 29 6 11
11 11 21 1 15 -15 28 -16 28 -2 0 6 -3 9 -7 9 -20 -3 -24 2 -13 16 11 13 10
15 -6 9 -15 -4 -13 -1 6 16 14 12 20 19 13 16 -8 -5 -9 1 0 24 6 16 17 30 24
30 6 0 15 4 18 10 3 5 0 7 -8 4 -8 -3 -14 2 -14 11 0 9 6 14 13 11 8 -3 16 0
20 6 4 6 3 8 -4 4 -15 -9 -26 12 -13 28 6 7 12 21 14 32 1 10 6 25 10 32 5 6
6 12 3 12 -2 0 -1 13 4 29 7 24 5 29 -6 24 -8 -3 -14 -10 -14 -15 0 -20 -79
-90 -92 -82 -10 6 -9 3 1 -9 12 -15 11 -17 -10 -17 -19 0 -21 -2 -9 -10 12 -8
12 -10 -4 -16 -10 -4 -29 -18 -42 -30 -12 -13 -28 -24 -34 -24 -6 0 -8 -4 -5
-10 3 -5 1 -10 -5 -10 -6 0 -26 -11 -44 -25 -26 -19 -35 -22 -45 -12 -10 9
-11 9 -6 -5 5 -12 -5 -22 -42 -39 -49 -23 -69 -29 -90 -31 -7 -1 -13 -5 -13
-9 0 -4 -11 -6 -25 -4 -14 1 -25 -1 -25 -5 0 -9 -9 -10 -120 -14 -52 -2 -100
0 -105 4 -6 5 -17 5 -25 0 -8 -5 -21 -5 -30 0 -9 5 -30 11 -46 14 -16 2 -31 5
-34 7 -3 1 -12 3 -20 3 -8 1 -14 8 -12 16 2 10 -1 11 -10 3 -15 -11 -93 28
-81 41 4 4 0 4 -9 1 -8 -3 -22 1 -31 9 -9 9 -19 16 -23 16 -3 0 -15 10 -25 22
-11 11 -19 17 -19 13 0 -5 -9 1 -20 12 -11 12 -35 34 -55 48 -19 15 -32 31
-29 36 3 5 0 9 -7 9 -18 0 -120 103 -115 117 3 7 0 15 -6 19 -7 4 -8 3 -4 -4
4 -7 4 -12 -1 -12 -14 0 -113 106 -106 113 3 4 -1 7 -11 7 -9 0 -28 10 -41 23
-13 12 -31 28 -40 35 -8 7 -12 18 -9 24 4 7 2 8 -4 4 -13 -8 -104 59 -94 70 4
4 2 4 -5 1 -6 -4 -17 -1 -25 6 -7 7 -28 20 -45 28 -18 7 -33 17 -33 20 0 4 -9
9 -21 12 -12 3 -18 10 -15 15 3 6 -2 8 -14 5 -11 -3 -20 0 -20 6 0 6 -3 10 -7
10 -21 -3 -33 2 -27 13 4 7 3 8 -4 4 -6 -4 -25 0 -42 9 -16 8 -31 15 -32 14
-7 -5 -84 25 -90 35 -5 8 -8 7 -8 -2 0 -8 -5 -10 -12 -5 -7 4 -24 9 -38 11
-13 2 -27 6 -30 10 -3 4 -23 8 -44 10 -22 1 -43 7 -47 13 -4 7 -9 8 -13 1 -3
-5 -22 -6 -45 -2 -22 4 -87 7 -145 8 -58 0 -110 3 -115 6 -4 3 -11 2 -15 -1z
m-231 -635 c5 4 5 2 1 -5 -8 -14 -36 -6 -36 9 0 7 5 6 13 -1 8 -6 18 -7 22 -3z
m-760 -197 c3 -5 1 -12 -5 -16 -5 -3 -10 1 -10 9 0 18 6 21 15 7z m2560 -641
c3 -5 1 -10 -4 -10 -6 0 -11 5 -11 10 0 6 2 10 4 10 3 0 8 -4 11 -10z"/>
<path d="M2054 3404 c-18 -14 -18 -14 6 -3 18 9 25 9 28 0 2 -6 8 -11 14 -11
6 0 6 6 -2 15 -16 19 -21 19 -46 -1z"/>
<path d="M1846 3394 c-11 -8 -16 -14 -10 -14 13 0 39 18 34 24 -3 2 -14 -2
-24 -10z"/>
<path d="M1806 3393 c-4 -5 -11 -8 -14 -9 -32 -4 -56 -31 -28 -31 8 0 14 5 13
11 -3 13 26 15 35 1 4 -5 6 0 5 13 -1 25 -1 25 -11 15z"/>
<path d="M2255 3360 c3 -5 8 -10 11 -10 2 0 4 5 4 10 0 6 -5 10 -11 10 -5 0
-7 -4 -4 -10z"/>
<path d="M1670 3335 c-7 -8 -17 -12 -23 -8 -5 3 -7 2 -4 -3 3 -6 -3 -15 -14
-22 -14 -9 -19 -9 -19 -1 0 7 -8 5 -20 -6 -19 -17 -18 -41 1 -29 5 3 7 10 4
15 -4 5 -1 9 4 9 6 0 11 -4 11 -10 0 -5 5 -10 10 -10 6 0 9 4 8 9 -2 5 1 8 5
8 5 -1 13 6 18 16 6 9 16 14 22 11 7 -4 9 -4 5 1 -4 4 -3 14 3 22 6 7 9 13 6
13 -2 0 -10 -7 -17 -15z"/>
<path d="M2224 3343 c4 -4 16 -8 28 -10 28 -4 18 6 -12 12 -12 2 -20 1 -16 -2z"/>
<path d="M2346 3321 c-8 -12 4 -19 24 -16 8 1 21 -4 28 -11 10 -11 10 -14 1
-14 -22 0 0 -13 26 -15 14 -2 23 1 20 5 -3 5 -13 6 -22 3 -10 -4 -14 -2 -10 4
4 6 -2 18 -13 28 -11 10 -20 15 -20 10 0 -4 -6 -2 -14 4 -9 8 -16 8 -20 2z"/>
<path d="M2360 3279 c0 -5 5 -7 10 -4 6 3 10 8 10 11 0 2 -4 4 -10 4 -5 0 -10
-5 -10 -11z"/>
<path d="M2416 3242 c-2 -4 4 -8 15 -8 10 0 19 4 19 8 0 4 -6 8 -14 8 -8 0
-17 -4 -20 -8z"/>
<path d="M2490 3221 c0 -5 7 -11 15 -15 8 -3 13 -11 11 -18 -1 -7 -1 -10 1 -5
3 4 10 4 16 0 7 -3 1 6 -12 20 -26 29 -31 32 -31 18z"/>
<path d="M1450 3160 c0 -5 5 -10 11 -10 5 0 7 5 4 10 -3 6 -8 10 -11 10 -2 0
-4 -4 -4 -10z"/>
<path d="M2533 3131 c0 -11 5 -18 9 -15 4 3 5 11 1 19 -7 21 -12 19 -10 -4z"/>
<path d="M4895 3139 c-4 -6 -5 -12 -2 -15 2 -3 7 2 10 11 7 17 1 20 -8 4z"/>
<path d="M2589 3121 c6 -10 7 -21 3 -25 -3 -4 1 -4 10 -1 15 6 15 8 0 26 -21
24 -26 24 -13 0z"/>
<path d="M1393 3095 c0 -8 4 -12 9 -9 4 3 8 9 8 15 0 5 -4 9 -8 9 -5 0 -9 -7
-9 -15z"/>
<path d="M4865 3100 c-3 -6 1 -7 9 -4 18 7 21 14 7 14 -6 0 -13 -4 -16 -10z"/>
<path d="M2615 3080 c3 -5 14 -10 23 -10 15 0 15 2 2 10 -20 13 -33 13 -25 0z"/>
<path d="M4812 3029 c-10 -16 -11 -24 -2 -33 8 -8 9 -6 4 8 -4 12 -4 17 2 13
6 -3 11 3 11 14 2 24 1 24 -15 -2z"/>
<path d="M2735 2969 c-4 -6 -5 -12 -2 -15 2 -3 7 2 10 11 7 17 1 20 -8 4z"/>
<path d="M4755 2960 c-3 -5 -1 -10 4 -10 6 0 11 5 11 10 0 6 -2 10 -4 10 -3 0
-8 -4 -11 -10z"/>
<path d="M4753 2925 c-3 -9 -3 -18 -1 -21 3 -3 8 4 11 16 6 23 -1 27 -10 5z"/>
<path d="M2786 2904 c-5 -13 -3 -14 7 -6 8 7 18 7 27 2 13 -8 13 -10 1 -10 -8
0 -12 -3 -8 -6 3 -3 11 -3 18 2 9 5 7 11 -6 21 -24 17 -32 17 -39 -3z"/>
<path d="M2816 2862 c-3 -5 1 -9 9 -9 8 0 12 4 9 9 -3 4 -7 8 -9 8 -2 0 -6 -4
-9 -8z"/>
<path d="M4708 2863 c7 -3 16 -2 19 1 4 3 -2 6 -13 5 -11 0 -14 -3 -6 -6z"/>
<path d="M2893 2824 c0 -16 13 -19 21 -5 3 5 0 11 -7 14 -8 3 -14 -1 -14 -9z"/>
<path d="M4636 2822 c-3 -4 4 -9 15 -9 23 -2 25 3 4 10 -8 4 -16 3 -19 -1z"/>
<path d="M2941 2787 c-8 -10 -7 -14 2 -14 8 0 14 6 14 14 0 7 -1 13 -2 13 -2
0 -8 -6 -14 -13z"/>
<path d="M4574 2778 c-10 -12 -14 -18 -7 -15 6 4 13 2 15 -5 3 -9 6 -9 12 0 4
7 2 12 -5 12 -8 0 -8 4 1 15 20 24 5 18 -16 -7z"/>
<path d="M2991 2754 c0 -11 3 -14 6 -6 3 7 2 16 -1 19 -3 4 -6 -2 -5 -13z"/>
<path d="M3050 2720 c-9 -6 -10 -10 -3 -10 6 0 15 5 18 10 8 12 4 12 -15 0z"/>
<path d="M3070 2700 c0 -5 5 -10 10 -10 6 0 10 5 10 10 0 6 -4 10 -10 10 -5 0
-10 -4 -10 -10z"/>
<path d="M3100 2685 c-7 -9 -8 -15 -2 -15 5 0 12 7 16 15 3 8 4 15 2 15 -2 0
-9 -7 -16 -15z"/>
<path d="M4421 2674 c0 -11 3 -14 6 -6 3 7 2 16 -1 19 -3 4 -6 -2 -5 -13z"/>
<path d="M3136 2654 c-5 -13 -4 -14 7 -6 8 7 18 8 22 4 5 -4 5 -1 1 6 -10 17
-23 15 -30 -4z"/>
<path d="M4392 2658 c-7 -7 -12 -16 -12 -21 0 -5 7 -1 16 8 9 9 14 18 12 20
-2 3 -10 -1 -16 -7z"/>
<path d="M3195 2600 c3 -5 8 -10 11 -10 2 0 4 5 4 10 0 6 -5 10 -11 10 -5 0
-7 -4 -4 -10z"/>
<path d="M3234 2603 c3 -4 18 -8 32 -9 14 -2 24 0 20 3 -3 3 -17 7 -32 9 -14
1 -23 0 -20 -3z"/>
<path d="M4254 2591 c0 -11 4 -17 8 -15 4 3 8 12 8 20 0 8 -4 14 -8 14 -4 0
-8 -9 -8 -19z"/>
<path d="M3347 2583 c3 -7 6 -13 8 -13 2 0 5 6 8 13 3 8 -1 14 -8 14 -7 0 -11
-6 -8 -14z"/>
<path d="M3395 2580 c3 -5 8 -10 11 -10 2 0 4 5 4 10 0 6 -5 10 -11 10 -5 0
-7 -4 -4 -10z"/>
<path d="M3487 2569 c6 -6 9 -19 6 -28 -4 -14 -3 -14 6 -1 15 21 14 27 -6 35
-14 5 -15 3 -6 -6z"/>
<path d="M1227 2564 c-4 -5 -22 -9 -40 -10 -18 0 -59 -5 -92 -9 -33 -4 -67 -8
-75 -9 -9 -1 -20 -5 -26 -8 -5 -4 -22 -5 -37 -4 -16 2 -24 -1 -20 -7 4 -6 0
-8 -10 -4 -10 4 -17 2 -17 -4 0 -6 -7 -9 -15 -5 -8 3 -15 1 -15 -4 0 -6 -3 -9
-7 -9 -5 1 -11 0 -15 -1 -5 -1 -12 -4 -18 -5 -5 -1 -12 -4 -15 -5 -3 -1 -8 -3
-12 -4 -8 -2 -65 -27 -108 -47 -40 -19 -114 -65 -139 -86 -15 -13 -28 -23 -31
-23 -3 0 -14 -9 -26 -21 -11 -11 -27 -18 -35 -15 -9 3 -12 1 -9 -5 6 -9 -6
-25 -87 -109 -16 -16 -28 -33 -28 -39 0 -5 -9 -16 -20 -24 -11 -8 -17 -17 -13
-20 3 -4 2 -7 -4 -7 -6 0 -13 -8 -17 -17 -6 -18 -27 -54 -36 -63 -3 -3 -19
-33 -35 -67 -17 -33 -33 -59 -37 -57 -3 2 -4 -5 -1 -16 3 -11 1 -20 -4 -20 -5
0 -10 -7 -11 -15 -1 -8 -3 -22 -4 -30 -1 -8 -6 -11 -11 -8 -6 4 -8 0 -4 -9 3
-9 -1 -25 -9 -37 -8 -11 -12 -21 -8 -21 3 0 1 -6 -5 -13 -6 -8 -8 -17 -4 -20
3 -4 0 -7 -8 -7 -11 0 -11 -2 1 -10 12 -8 12 -10 1 -10 -8 0 -11 -3 -8 -6 3
-4 2 -14 -3 -23 -5 -10 -5 -23 1 -32 7 -11 9 -11 9 4 0 10 4 16 9 13 5 -3 12
1 15 10 3 8 11 12 16 9 6 -4 10 -3 9 2 -3 18 1 36 8 30 3 -4 11 3 18 16 6 12
17 21 23 20 7 -2 12 3 12 11 0 8 7 17 16 20 23 9 26 8 18 -6 -6 -10 -5 -10 8
-1 8 7 19 9 23 5 5 -4 5 -1 1 6 -4 7 -4 19 1 25 4 7 1 5 -8 -5 -9 -9 -19 -14
-22 -11 -4 3 5 14 19 25 21 17 27 18 41 6 15 -11 15 -11 6 6 -9 17 -4 25 40
57 29 20 58 34 66 31 10 -4 12 -1 6 8 -5 8 -4 11 3 6 6 -4 9 -14 6 -24 -5 -15
-5 -15 6 1 6 9 8 22 4 29 -5 7 -3 8 7 2 21 -13 39 -14 39 -2 0 6 -7 8 -15 4
-8 -3 -15 -2 -15 3 0 5 9 11 20 14 11 3 18 1 15 -3 -3 -5 -1 -11 5 -15 5 -3
10 2 10 13 0 10 7 19 15 19 9 0 12 -5 7 -12 -4 -6 1 -3 10 7 15 17 18 17 32 2
14 -13 16 -13 16 -1 0 9 -5 18 -10 20 -6 3 -5 4 2 3 7 -2 21 1 32 6 13 7 16 7
12 -1 -4 -6 -3 -11 3 -11 5 0 8 -9 6 -20 -2 -12 0 -18 6 -14 6 3 8 9 5 12 -3
3 0 12 7 20 10 13 9 14 -2 7 -10 -5 -12 -4 -7 3 10 16 39 15 31 0 -4 -7 -1 -6
7 2 9 11 32 15 75 15 34 0 59 -3 57 -6 -2 -4 14 -6 36 -4 23 2 38 -1 34 -6 -3
-5 -10 -6 -16 -3 -10 7 -28 -13 -28 -31 1 -5 5 -2 11 7 5 9 16 15 24 12 8 -4
12 -11 8 -17 -3 -6 -1 -7 5 -3 7 4 12 2 12 -5 0 -7 3 -9 6 -6 4 4 2 13 -4 20
-7 8 -9 17 -5 20 3 4 12 -1 20 -11 8 -9 12 -12 9 -5 -8 15 10 27 19 13 4 -6
10 -8 15 -5 5 3 11 1 15 -5 4 -6 11 -7 17 -4 5 4 4 -4 -2 -17 -7 -13 -9 -21
-5 -17 5 4 15 2 24 -5 14 -10 14 -10 3 5 -12 15 -11 17 7 15 12 -1 21 -4 21
-7 0 -4 6 -7 13 -8 10 -1 35 -6 55 -11 1 -1 -3 -11 -9 -23 -11 -21 -11 -22 4
-10 17 15 37 8 37 -11 0 -7 -4 -6 -11 3 -9 12 -10 12 -7 1 6 -22 28 -25 28 -4
0 15 2 15 10 3 5 -8 5 -19 0 -25 -6 -7 -2 -11 10 -11 10 0 16 5 13 10 -4 5 -1
6 6 2 7 -5 10 -14 8 -20 -3 -7 -2 -18 3 -25 5 -10 9 -9 13 4 5 10 3 14 -5 9
-7 -4 -8 -3 -4 5 12 19 27 2 20 -24 -3 -12 -1 -26 4 -29 6 -4 8 2 5 14 -3 11
0 20 6 20 6 0 11 -7 11 -16 0 -10 6 -14 14 -11 16 6 40 -16 29 -26 -3 -4 -1
-7 5 -7 7 0 12 -5 12 -11 0 -5 -4 -8 -8 -5 -5 3 -9 -1 -9 -9 0 -8 4 -12 9 -9
4 3 8 0 8 -5 0 -6 5 -11 11 -11 8 0 8 4 0 14 -8 9 -8 16 -2 20 16 10 25 -35
10 -46 -11 -8 -10 -9 3 -5 9 3 19 1 22 -6 3 -7 3 -1 0 12 -5 21 -4 22 8 10 8
-7 14 -23 12 -34 -1 -13 4 -22 12 -22 10 0 11 4 3 14 -8 9 -8 13 -1 13 6 0 14
-9 17 -20 3 -11 11 -20 16 -20 6 0 17 -6 25 -14 12 -13 12 -16 -3 -26 -16 -10
-15 -10 5 -5 16 5 22 2 22 -9 0 -10 6 -13 18 -10 14 5 14 3 -3 -12 -17 -14
-17 -16 -2 -11 27 10 50 -2 36 -19 -7 -8 -9 -17 -5 -21 3 -3 6 -1 6 5 0 7 4
12 10 12 16 0 80 -61 80 -76 0 -8 5 -14 11 -14 6 0 7 6 2 13 -4 6 7 1 24 -13
18 -14 32 -29 32 -34 1 -5 -5 -3 -13 3 -11 9 -16 9 -22 0 -4 -7 -3 -9 4 -5 6
3 14 2 17 -4 5 -8 11 -7 21 1 12 10 13 9 8 -6 -5 -13 -4 -16 4 -11 7 4 12 3
12 -3 0 -5 -8 -11 -17 -13 -15 -3 -14 -5 4 -10 12 -3 22 -3 21 1 -2 21 4 21
22 1 11 -13 20 -26 20 -29 0 -3 9 -12 21 -19 13 -9 18 -9 14 -2 -4 7 0 10 11
8 11 -2 24 -12 31 -23 7 -11 12 -14 13 -7 0 6 5 12 11 12 5 0 7 -4 4 -10 -3
-5 -1 -11 4 -11 14 -2 29 -6 36 -9 3 -1 10 -3 15 -4 12 -1 14 -15 4 -24 -4 -4
-4 -2 -1 4 3 6 0 11 -8 11 -11 0 -12 -4 -4 -13 8 -10 16 -11 31 -3 12 6 18 7
14 1 -3 -5 1 -15 9 -22 12 -10 18 -10 30 0 9 8 15 9 15 2 0 -6 -4 -14 -10 -17
-5 -3 -10 -11 -10 -18 0 -6 6 -2 14 8 13 18 51 32 40 14 -4 -8 26 -14 49 -10
5 1 5 -4 1 -10 -4 -8 0 -9 15 -4 16 5 20 3 15 -9 -3 -9 -1 -16 5 -16 6 0 11 5
11 10 0 6 12 9 28 6 15 -2 27 -5 27 -6 0 -2 43 -10 68 -12 9 -1 17 -6 17 -11
0 -5 7 -4 15 3 11 9 15 9 15 1 0 -7 4 -10 9 -7 10 7 53 -29 45 -37 -8 -7 18
-3 32 5 6 4 20 1 30 -7 10 -8 24 -14 29 -14 6 0 2 4 -8 10 -9 6 -15 14 -12 20
3 5 -1 6 -9 3 -9 -3 -16 -2 -16 3 0 5 19 9 43 8 33 0 41 -4 39 -17 -2 -11 4
-16 17 -15 11 0 17 5 15 9 -3 5 -10 6 -15 3 -5 -3 -6 1 -3 9 3 9 10 16 16 16
5 0 7 -4 4 -9 -7 -11 21 -24 54 -26 14 -1 32 -5 39 -10 9 -5 12 -4 7 3 -10 17
12 24 36 11 13 -6 20 -8 16 -4 -4 4 -3 17 3 27 9 16 13 17 22 8 9 -10 9 -14 0
-17 -7 -3 -13 -9 -13 -14 0 -19 16 -8 33 23 14 23 21 28 29 20 13 -13 42 -16
34 -4 -2 4 7 7 22 7 15 -1 33 3 39 8 7 5 19 7 28 4 8 -4 17 -2 20 4 4 5 10 7
15 4 5 -3 12 0 15 6 4 5 13 8 21 5 7 -3 16 -1 19 3 2 5 13 11 24 14 14 3 18 1
14 -9 -4 -10 0 -12 11 -8 8 3 14 9 13 12 -1 4 1 7 4 7 3 0 14 7 24 15 11 8 16
10 12 3 -4 -6 -3 -14 2 -17 5 -3 11 4 14 15 4 16 11 19 26 14 16 -5 19 -3 15
9 -6 16 19 17 33 1 4 -4 2 -5 -6 0 -10 6 -12 4 -7 -4 6 -9 12 -9 25 3 10 9 20
14 23 11 2 -3 5 2 5 10 0 13 -3 12 -19 -2 -18 -16 -18 -16 -12 0 6 16 12 19
31 16 3 0 10 7 15 16 9 15 12 15 36 -1 l27 -17 -20 23 c-11 13 -15 20 -8 17 6
-4 15 -3 18 3 5 8 11 8 21 0 7 -7 19 -10 26 -7 9 4 7 6 -3 6 -9 1 -19 7 -22
15 -4 9 0 12 13 9 10 -3 21 0 25 7 5 8 10 8 20 0 10 -8 15 -8 21 1 4 7 3 9 -3
6 -6 -4 -10 4 -10 18 0 23 20 40 37 30 4 -3 11 6 14 20 4 14 11 25 16 25 14 0
12 -17 -2 -24 -7 -2 -3 -4 10 -2 12 1 28 9 35 16 10 12 9 12 -5 1 -14 -10 -17
-9 -20 6 -4 19 48 80 59 69 4 -3 -1 -12 -10 -19 -12 -9 -14 -16 -6 -27 9 -13
10 -13 6 0 -2 8 3 20 12 27 13 9 13 14 4 24 -10 10 -7 18 15 38 15 14 31 24
36 23 5 -2 3 5 -5 14 -8 11 -9 15 -2 11 15 -9 62 19 59 36 -1 7 -6 18 -10 26
-6 10 -5 12 2 7 8 -5 12 0 12 13 0 11 5 23 10 26 6 4 8 10 5 14 -7 12 32 44
44 36 7 -3 8 0 5 9 -3 9 -10 13 -15 10 -16 -10 4 28 27 52 13 12 24 29 24 36
-1 7 -7 2 -15 -12 -20 -35 -19 -18 2 24 9 20 21 32 27 29 6 -4 4 2 -4 12 -12
15 -12 17 -1 10 11 -6 13 -4 7 10 -5 14 0 24 16 37 20 16 20 17 3 11 -17 -6
-18 -4 -8 9 7 8 10 18 6 21 -3 4 -2 7 4 7 5 0 9 10 8 23 -1 12 2 30 7 39 6 14
5 16 -7 12 -8 -4 -15 -10 -15 -14 0 -13 -48 -59 -55 -52 -4 4 -5 2 -3 -4 4
-14 -54 -74 -65 -67 -6 3 -7 1 -4 -4 9 -14 -19 -37 -32 -28 -6 3 -9 0 -6 -7 3
-8 -28 -36 -80 -71 -47 -32 -85 -52 -85 -46 0 7 -6 5 -13 -6 -9 -11 -19 -15
-27 -10 -9 5 -11 4 -6 -3 7 -11 -7 -16 -41 -15 -7 1 -13 -3 -13 -9 0 -5 -4 -6
-10 -3 -5 3 -10 1 -10 -5 0 -7 -6 -10 -14 -7 -8 3 -17 3 -21 -1 -3 -4 -21 -8
-38 -10 -42 -5 -206 -5 -232 0 -11 2 -41 8 -67 12 -27 5 -48 13 -48 18 0 5 -4
6 -10 3 -5 -3 -10 -2 -10 3 0 6 -9 8 -20 5 -11 -3 -20 -1 -20 4 0 5 -16 15
-35 23 -19 8 -35 18 -35 22 0 5 -5 6 -10 3 -6 -3 -13 1 -16 9 -3 9 -12 16 -20
16 -8 0 -19 9 -26 20 -7 11 -17 20 -23 20 -13 0 -115 97 -115 110 0 6 -6 9
-12 7 -7 -1 -12 4 -11 10 2 7 -2 12 -9 10 -6 -1 -17 9 -25 23 -7 14 -13 21
-13 16 0 -5 -21 13 -47 40 -27 27 -47 52 -46 56 3 7 -12 12 -29 9 -5 0 -8 5
-8 12 0 6 -15 23 -33 37 -17 14 -48 41 -67 60 -19 19 -35 33 -36 30 -2 -3 -14
5 -28 17 -14 12 -45 35 -68 50 -24 15 -45 30 -48 33 -19 21 -253 125 -303 134
-12 3 -24 5 -27 6 -3 2 -9 2 -14 1 -4 -1 -13 2 -20 7 -6 5 -19 8 -29 6 -13 -2
-17 2 -13 13 5 12 3 13 -6 6 -7 -6 -22 -9 -33 -6 -11 2 -45 6 -75 10 -30 3
-63 9 -72 14 -10 6 -19 5 -23 -1 -4 -6 -11 -7 -17 -4 -13 8 -173 8 -186 0 -6
-3 -12 -1 -14 5 -2 5 -7 7 -11 3z m2390 -968 c0 -7 -8 -18 -18 -24 -13 -8 -17
-8 -15 1 4 31 33 51 33 23z m-263 -280 c-10 -8 -21 -12 -24 -10 -5 6 21 24 34
24 6 0 1 -6 -10 -14z m-1544 -42 c0 -3 -7 -1 -15 6 -8 7 -15 17 -15 22 0 5 7
3 15 -6 8 -8 15 -18 15 -22z m200 -94 c0 -5 -4 -10 -10 -10 -5 0 -10 5 -10 10
0 6 5 10 10 10 6 0 10 -4 10 -10z m405 -90 c11 -17 -5 -32 -21 -19 -7 6 -11
15 -8 20 7 12 21 11 29 -1z m170 -11 c5 9 10 9 21 0 10 -8 14 -8 14 0 0 6 10
11 21 11 17 0 19 -3 10 -14 -15 -18 -83 -15 -88 4 -4 12 -3 12 5 1 7 -9 11
-10 17 -2z m105 1 c0 -5 -4 -10 -10 -10 -5 0 -10 5 -10 10 0 6 5 10 10 10 6 0
10 -4 10 -10z"/>
<path d="M3520 2560 c0 -5 5 -10 11 -10 5 0 7 5 4 10 -3 6 -8 10 -11 10 -2 0
-4 -4 -4 -10z"/>
<path d="M3635 2550 c-6 -10 1 -14 19 -11 5 1 6 -5 3 -13 -4 -9 -2 -18 4 -21
5 -4 9 -3 8 2 -3 19 2 33 12 33 5 0 8 -4 4 -9 -3 -5 0 -13 6 -17 8 -5 9 -3 4
6 -6 9 -2 10 15 5 20 -6 21 -5 9 7 -7 8 -23 14 -34 13 -11 0 -25 3 -32 7 -6 5
-14 5 -18 -2z"/>
<path d="M3770 2543 c0 -4 5 -15 10 -23 8 -13 10 -13 10 2 0 9 -4 20 -10 23
-5 3 -10 3 -10 -2z"/>
<path d="M3807 2544 c-8 -8 3 -34 15 -34 7 0 6 5 -1 13 -6 8 -8 17 -4 20 3 4
4 7 1 7 -2 0 -7 -3 -11 -6z"/>
<path d="M4070 2540 c0 -5 5 -10 11 -10 5 0 7 5 4 10 -3 6 -8 10 -11 10 -2 0
-4 -4 -4 -10z"/>
<path d="M3537 2533 c-10 -9 -9 -23 1 -23 5 0 9 7 9 15 0 17 -1 18 -10 8z"/>
<path d="M3853 2525 c0 -8 4 -12 9 -9 5 3 6 10 3 15 -9 13 -12 11 -12 -6z"/>
<path d="M722 1952 c-7 -2 -12 -9 -12 -14 0 -6 3 -8 7 -5 3 4 12 -1 20 -11 12
-16 13 -16 6 2 -5 14 -3 17 7 11 9 -5 11 -4 6 3 -4 7 -2 12 3 12 6 0 11 -4 11
-9 0 -13 38 -9 43 4 4 10 -66 16 -91 7z"/>
<path d="M625 1929 c-4 -6 -5 -12 -2 -15 2 -3 7 2 10 11 7 17 1 20 -8 4z"/>
<path d="M816 1923 c-6 -14 -5 -15 5 -6 7 7 10 15 7 18 -3 3 -9 -2 -12 -12z"/>
<path d="M956 1926 c3 -8 14 -14 24 -13 17 1 18 12 2 12 -4 0 -13 4 -19 8 -9
6 -11 3 -7 -7z"/>
<path d="M680 1919 c0 -5 5 -7 10 -4 6 3 10 8 10 11 0 2 -4 4 -10 4 -5 0 -10
-5 -10 -11z"/>
<path d="M979 1898 c-5 -18 -6 -38 -1 -34 7 8 12 36 6 36 -2 0 -4 -1 -5 -2z"/>
<path d="M535 1880 c-3 -6 1 -7 9 -4 18 7 21 14 7 14 -6 0 -13 -4 -16 -10z"/>
<path d="M1070 1884 c0 -6 6 -17 14 -23 10 -9 16 -8 25 3 10 12 9 14 -6 12
-10 -2 -21 2 -25 8 -6 8 -8 8 -8 0z"/>
<path d="M385 1839 c-44 -33 -51 -44 -36 -54 6 -3 9 0 6 7 -5 12 47 52 68 53
7 0 11 14 5 20 -2 2 -21 -10 -43 -26z"/>
<path d="M474 1859 c-3 -6 -2 -15 3 -20 5 -5 9 -1 9 11 0 23 -2 24 -12 9z"/>
<path d="M1120 1800 c-9 -6 -10 -10 -3 -10 6 0 15 5 18 10 8 12 4 12 -15 0z"/>
<path d="M310 1749 c0 -5 5 -7 10 -4 6 3 10 8 10 11 0 2 -4 4 -10 4 -5 0 -10
-5 -10 -11z"/>
<path d="M3690 1756 c0 -2 8 -10 18 -17 15 -13 16 -12 3 4 -13 16 -21 21 -21
13z"/>
<path d="M1274 1724 c-18 -15 -18 -15 2 -5 12 6 25 7 29 3 5 -4 5 -1 1 6 -9
15 -8 15 -32 -4z"/>
<path d="M255 1700 c-3 -5 -1 -10 4 -10 6 0 11 5 11 10 0 6 -2 10 -4 10 -3 0
-8 -4 -11 -10z"/>
<path d="M3659 1693 c-13 -16 -12 -17 4 -4 9 7 17 15 17 17 0 8 -8 3 -21 -13z"/>
<path d="M206 1692 c-2 -4 -1 -14 4 -22 7 -11 9 -9 7 8 -1 24 -3 26 -11 14z"/>
<path d="M150 1616 c0 -2 8 -10 18 -17 15 -13 16 -12 3 4 -13 16 -21 21 -21
13z"/>
<path d="M1430 1570 c0 -5 5 -10 10 -10 6 0 10 5 10 10 0 6 -4 10 -10 10 -5 0
-10 -4 -10 -10z"/>
<path d="M3557 1495 c-8 -8 -17 -12 -21 -10 -3 3 -4 2 -1 -2 3 -4 13 -8 21 -9
9 -1 13 0 10 3 -3 4 -1 12 5 20 15 18 4 17 -14 -2z"/>
<path d="M1470 1481 c0 -6 4 -13 10 -16 6 -3 7 1 4 9 -7 18 -14 21 -14 7z"/>
<path d="M1576 1445 c4 -8 11 -15 16 -15 6 0 5 6 -2 15 -7 8 -14 15 -16 15 -2
0 -1 -7 2 -15z"/>
<path d="M1535 1440 c-3 -6 1 -7 9 -4 18 7 21 14 7 14 -6 0 -13 -4 -16 -10z"/>
<path d="M1556 1422 c-2 -4 -1 -14 4 -22 7 -11 9 -9 7 8 -1 24 -3 26 -11 14z"/>
<path d="M1594 1409 c-4 -7 -3 -9 4 -5 5 3 13 0 15 -6 4 -9 6 -10 6 -1 1 17
-16 25 -25 12z"/>
<path d="M1640 1380 c-12 -7 -10 -9 7 -7 12 0 19 5 17 9 -6 10 -6 10 -24 -2z"/>
<path d="M1635 1340 c-3 -5 -1 -10 4 -10 6 0 11 5 11 10 0 6 -2 10 -4 10 -3 0
-8 -4 -11 -10z"/>
<path d="M3390 1340 c0 -5 5 -10 10 -10 6 0 10 5 10 10 0 6 -4 10 -10 10 -5 0
-10 -4 -10 -10z"/>
<path d="M1750 1286 c0 -8 4 -17 9 -20 5 -4 7 3 4 14 -6 23 -13 26 -13 6z"/>
<path d="M1830 1241 c0 -5 5 -13 10 -16 6 -3 10 -2 10 4 0 5 -4 13 -10 16 -5
3 -10 2 -10 -4z"/>
<path d="M3236 1234 c-4 -9 -4 -19 -1 -22 3 -3 5 0 5 6 0 6 8 9 18 6 10 -4 13
-2 7 3 -5 4 -13 12 -16 16 -4 4 -9 0 -13 -9z"/>
<path d="M1860 1216 c0 -7 50 -13 55 -7 2 4 -10 8 -26 9 -16 1 -29 1 -29 -2z"/>
<path d="M1971 1153 c7 -12 15 -20 18 -17 3 2 -3 12 -13 22 -17 16 -18 16 -5
-5z"/>
<path d="M3137 1155 c-4 -8 -1 -17 6 -21 7 -4 9 -4 5 1 -4 4 -3 14 3 22 7 8 8
13 1 13 -5 0 -12 -7 -15 -15z"/>
<path d="M2047 1149 c6 -6 9 -19 6 -28 -4 -13 -3 -13 5 -2 6 8 17 11 26 8 28
-11 17 1 -16 18 -18 9 -28 11 -21 4z"/>
<path d="M3057 1143 c3 -7 6 -13 8 -13 2 0 5 6 8 13 3 8 -1 14 -8 14 -7 0 -11
-6 -8 -14z"/>
<path d="M2985 1130 c-4 -6 -11 -8 -16 -4 -5 3 -16 0 -24 -6 -8 -7 -15 -9 -15
-5 0 4 -6 3 -12 -2 -7 -6 -20 -9 -29 -8 -19 3 -44 -41 -28 -50 5 -4 9 -3 8 2
-4 22 2 35 15 30 7 -3 19 0 25 6 12 12 35 19 64 18 9 0 17 5 17 10 0 6 5 7 10
4 6 -3 10 -1 10 4 0 14 -17 14 -25 1z"/>
<path d="M2178 1114 c6 -3 10 -10 7 -14 -3 -5 4 -7 16 -5 16 3 20 0 15 -13 -6
-16 -5 -16 8 1 13 17 32 25 22 9 -2 -4 4 -8 15 -8 26 0 6 19 -23 22 -13 1 -23
3 -23 4 0 1 -11 3 -25 5 -14 2 -19 1 -12 -1z"/>
<path d="M2754 1089 c-4 -7 -3 -9 4 -5 5 3 12 0 15 -6 2 -7 7 -10 11 -7 4 3 0
12 -8 18 -11 9 -16 9 -22 0z"/>
<path d="M2310 1081 c0 -6 4 -12 8 -15 5 -3 9 1 9 9 0 8 -4 15 -9 15 -4 0 -8
-4 -8 -9z"/>
<path d="M2343 1073 c0 -11 7 -20 14 -20 10 0 10 4 1 16 -7 9 -13 18 -15 20
-1 2 -1 -5 0 -16z"/>
<path d="M2810 1080 c0 -5 5 -10 11 -10 5 0 7 5 4 10 -3 6 -8 10 -11 10 -2 0
-4 -4 -4 -10z"/>
<path d="M2920 1086 c0 -2 8 -10 18 -17 15 -13 16 -12 3 4 -13 16 -21 21 -21
13z"/>
<path d="M2482 1071 c-11 -7 -11 -9 0 -14 9 -3 15 1 15 9 0 8 -1 14 -1 14 -1
0 -7 -4 -14 -9z"/>
<path d="M2750 1060 c0 -5 5 -10 11 -10 5 0 7 5 4 10 -3 6 -8 10 -11 10 -2 0
-4 -4 -4 -10z"/>
</g>
</svg>
